<svg width="48" height="40" viewBox="0 0 48 40" fill="none" xmlns="http://www.w3.org/2000/svg">
<rect x="0.5" y="0.5" width="47" height="39" rx="19.5" fill="white"/>
<rect x="0.5" y="0.5" width="47" height="39" rx="19.5" stroke="#E4E7EC"/>
<path d="M27 14.75C26.6021 14.7499 26.2205 14.5917 25.9392 14.3103C25.6579 14.0288 25.4999 13.6472 25.5 13.2492C25.5001 12.8513 25.6583 12.4697 25.9397 12.1884C26.2212 11.9071 26.6028 11.7492 27.0007 11.7493C27.1978 11.7493 27.3929 11.7882 27.5749 11.8636C27.7569 11.939 27.9223 12.0496 28.0616 12.189C28.2009 12.3283 28.3113 12.4938 28.3867 12.6758C28.462 12.8579 28.5008 13.053 28.5007 13.25C28.5007 13.447 28.4618 13.6421 28.3864 13.8241C28.311 14.0062 28.2004 14.1715 28.061 14.3108C27.9217 14.4501 27.7563 14.5606 27.5742 14.6359C27.3921 14.7113 27.197 14.75 27 14.75ZM29.8935 12.5C29.5582 11.21 28.3935 10.25 27 10.25C25.6065 10.25 24.4418 11.21 24.1065 12.5H15V14H24.1065C24.4418 15.29 25.6065 16.25 27 16.25C28.3935 16.25 29.5582 15.29 29.8935 14H33V12.5H29.8935ZM27 28.25C26.803 28.25 26.6079 28.2111 26.4259 28.1356C26.2438 28.0602 26.0785 27.9496 25.9392 27.8103C25.7999 27.6709 25.6894 27.5055 25.6141 27.3234C25.5387 27.1414 25.5 26.9463 25.5 26.7493C25.5 26.5522 25.5389 26.3571 25.6144 26.1751C25.6898 25.9931 25.8004 25.8277 25.9397 25.6884C26.0791 25.5491 26.2445 25.4387 26.4266 25.3633C26.6086 25.288 26.8037 25.2492 27.0007 25.2493C27.3987 25.2493 27.7803 25.4075 28.0616 25.689C28.3429 25.9704 28.5008 26.3521 28.5007 26.75C28.5007 27.1479 28.3425 27.5295 28.061 27.8108C27.7796 28.0921 27.3979 28.2501 27 28.25ZM27 23.75C25.6065 23.75 24.4418 24.71 24.1065 26H15V27.5H24.1065C24.4418 28.79 25.6065 29.75 27 29.75C28.3935 29.75 29.5582 28.79 29.8935 27.5H33V26H29.8935C29.5582 24.71 28.3935 23.75 27 23.75ZM21 21.5C20.803 21.5 20.6079 21.4611 20.4259 21.3856C20.2438 21.3102 20.0785 21.1996 19.9392 21.0603C19.7999 20.9209 19.6894 20.7555 19.6141 20.5734C19.5387 20.3914 19.5 20.1963 19.5 19.9992C19.5 19.8022 19.5389 19.6071 19.6144 19.4251C19.6898 19.2431 19.8004 19.0777 19.9397 18.9384C20.0791 18.7991 20.2445 18.6887 20.4266 18.6133C20.6086 18.538 20.8037 18.4992 21.0008 18.4992C21.3987 18.4993 21.7803 18.6575 22.0616 18.939C22.3429 19.2204 22.5008 19.6021 22.5008 20C22.5007 20.3979 22.3425 20.7795 22.061 21.0608C21.7796 21.3421 21.3979 21.5001 21 21.5ZM21 17C19.6065 17 18.4418 17.96 18.1065 19.25H15V20.75H18.1065C18.4418 22.04 19.6065 23 21 23C22.3935 23 23.5582 22.04 23.8935 20.75H33V19.25H23.8935C23.5582 17.96 22.3935 17 21 17Z" fill="#181818"/>
</svg>
