<svg width="225" height="225" viewBox="0 0 225 225" fill="none" xmlns="http://www.w3.org/2000/svg">
<path d="M0 40C0 17.9086 17.9086 0 40 0H185C207.091 0 225 17.9086 225 40V185C225 207.091 207.091 225 185 225H40C17.9086 225 0 207.091 0 185V40Z" fill="#57BF7D"/>
<path d="M170.05 74.08C161.996 60.9997 150.101 50.9913 136.143 45.5513C122.185 40.1112 106.915 39.5319 92.6149 43.8998C78.3153 48.2678 65.7548 57.3484 56.8116 69.7838C47.8685 82.2192 43.0231 97.3413 43.0001 112.889C42.9771 128.436 47.7776 143.574 56.684 156.038C65.5903 168.502 78.1238 177.623 92.4104 182.037C106.697 186.451 121.969 185.921 135.943 180.526C149.917 175.131 161.842 165.161 169.935 152.107L148.078 137.353C143.038 145.483 135.612 151.691 126.91 155.051C118.208 158.411 108.698 158.741 99.8008 155.992C90.904 153.243 83.0989 147.563 77.5526 139.801C72.0063 132.04 69.0168 122.613 69.0311 112.931C69.0455 103.249 72.0629 93.8316 77.6321 86.0876C83.2014 78.3436 91.0233 72.6888 99.9282 69.9687C108.833 67.2486 118.343 67.6094 127.035 70.9971C135.727 74.3848 143.134 80.6174 148.15 88.763L170.05 74.08Z" fill="white"/>
<circle cx="163.5" cy="112.5" r="12.5" fill="white"/>
<path d="M171 112.5C171 116.642 167.642 120 163.5 120C159.358 120 156 116.642 156 112.5C156 108.358 159.358 105 163.5 105C167.642 105 171 108.358 171 112.5Z" fill="#57C77F"/>
</svg>
